<svg width="60" height="60" viewBox="0 0 60 60" fill="none" xmlns="http://www.w3.org/2000/svg">
<path d="M18.5912 42.0144H21.4281V29.8988H18.5912V42.0144ZM38.5719 42.0144H41.4087V16.7262H38.5719V42.0144ZM28.5819 42.0144H31.4181V35.2162H28.5819V42.0144ZM28.5819 29.8988H31.4181V25.8125H28.5819V29.8988ZM12.3556 51.25C11.3752 51.25 10.5292 50.8942 9.8175 50.1825C9.10583 49.4708 8.75 48.6248 8.75 47.6444V12.3556C8.75 11.3752 9.10583 10.5292 9.8175 9.8175C10.5292 9.10583 11.3752 8.75 12.3556 8.75H47.6444C48.6248 8.75 49.4708 9.10583 50.1825 9.8175C50.8942 10.5292 51.25 11.3752 51.25 12.3556V47.6444C51.25 48.6248 50.8942 49.4708 50.1825 50.1825C49.4708 50.8942 48.6248 51.25 47.6444 51.25H12.3556ZM12.3556 48.4131H47.6444C47.8365 48.4131 48.0127 48.3331 48.1731 48.1731C48.3331 48.0127 48.4131 47.8365 48.4131 47.6444V12.3556C48.4131 12.1635 48.3331 11.9873 48.1731 11.8269C48.0127 11.6669 47.8365 11.5869 47.6444 11.5869H12.3556C12.1635 11.5869 11.9873 11.6669 11.8269 11.8269C11.6669 11.9873 11.5869 12.1635 11.5869 12.3556V47.6444C11.5869 47.8365 11.6669 48.0127 11.8269 48.1731C11.9873 48.3331 12.1635 48.4131 12.3556 48.4131Z" fill="#1F1F1F"/>
</svg>
