<svg width="80" height="80" viewBox="0 0 80 80" fill="none" xmlns="http://www.w3.org/2000/svg">
<path d="M23.096 65.8331C20.6387 65.8331 18.5268 64.9078 16.7601 63.0572C14.9929 61.2067 14.1007 58.9908 14.0835 56.4097C12.1773 55.2814 10.6871 53.8094 9.61262 51.9939C8.53762 50.1778 8.00012 48.1844 8.00012 46.0139C8.00012 43.2694 8.83123 40.8406 10.4935 38.7272C12.1562 36.6139 14.3123 35.2944 16.9618 34.7689L9.89095 27.4931L7.95512 29.4806C7.56234 29.9078 7.09873 30.1322 6.56429 30.1539C6.02984 30.175 5.56623 29.9806 5.17345 29.5706C4.78012 29.16 4.59429 28.6964 4.61595 28.1797C4.63707 27.6625 4.84429 27.1903 5.23762 26.7631L11.8268 19.9872C12.2201 19.5939 12.6893 19.3867 13.2343 19.3656C13.7793 19.3439 14.2482 19.5436 14.641 19.9647C15.0126 20.3642 15.1879 20.8225 15.1668 21.3397C15.1457 21.8569 14.949 22.3119 14.5768 22.7047L12.6093 24.7431L19.346 31.8014L22.6926 21.7947C23.2393 20.1964 24.1723 18.8781 25.4918 17.8397C26.8112 16.8014 28.2926 16.2822 29.936 16.2822H50.071C51.7276 16.2822 53.2207 16.8014 54.5501 17.8397C55.8801 18.8781 56.7907 20.1964 57.2818 21.7947L61.2885 34.6347C64.3268 34.7842 66.8801 35.9261 68.9485 38.0606C71.0168 40.195 72.051 42.8436 72.051 46.0064C72.051 48.1786 71.519 50.1736 70.4551 51.9914C69.3912 53.8086 67.8954 55.2814 65.9676 56.4097C65.951 58.9908 65.059 61.2067 63.2918 63.0572C61.5246 64.9078 59.4232 65.8331 56.9876 65.8331C54.6654 65.8331 52.6746 65.0222 51.0151 63.4006C49.3557 61.7783 48.3998 59.8114 48.1476 57.4997H31.9043C31.6732 59.8114 30.7201 61.7783 29.0451 63.4006C27.3696 65.0222 25.3865 65.8331 23.096 65.8331ZM22.4168 34.5639H37.9935V20.0639H29.936C29.1087 20.0639 28.3721 20.3331 27.726 20.8714C27.0798 21.4103 26.621 22.0803 26.3493 22.8814L22.4168 34.5639ZM41.776 34.5639H57.321L53.6751 22.9064C53.3707 22.0886 52.8985 21.4103 52.2585 20.8714C51.619 20.3331 50.8898 20.0639 50.071 20.0639H41.776V34.5639ZM31.776 53.7181H48.276C48.8443 51.8675 49.9479 50.3683 51.5868 49.2206C53.2257 48.0733 55.026 47.4997 56.9876 47.4997C58.6798 47.4997 60.2385 47.9558 61.6635 48.8681C63.0885 49.7808 64.2093 50.9764 65.026 52.4547C66.141 51.7325 66.9604 50.7892 67.4843 49.6247C68.0076 48.4597 68.2693 47.2536 68.2693 46.0064C68.2693 43.8497 67.5318 42.0339 66.0568 40.5589C64.5812 39.0833 62.7654 38.3456 60.6093 38.3456H19.4426C17.2865 38.3456 15.4707 39.0833 13.9951 40.5589C12.5196 42.0339 11.7818 43.8497 11.7818 46.0064C11.7818 47.2536 12.0576 48.4597 12.6093 49.6247C13.1604 50.7892 13.966 51.7325 15.026 52.4547C15.8082 50.8864 16.9251 49.6686 18.3768 48.8014C19.829 47.9336 21.4021 47.4997 23.096 47.4997C25.0576 47.4997 26.8579 48.0733 28.4968 49.2206C30.1357 50.3683 31.2287 51.8675 31.776 53.7181ZM23.0951 62.0514C24.5979 62.0514 25.8712 61.5297 26.9151 60.4864C27.959 59.4436 28.481 58.1706 28.481 56.6672C28.481 55.1644 27.9593 53.8911 26.916 52.8472C25.8732 51.8033 24.6004 51.2814 23.0976 51.2814C21.5948 51.2814 20.3215 51.8031 19.2776 52.8464C18.2337 53.8892 17.7118 55.1622 17.7118 56.6656C17.7118 58.1683 18.2332 59.4417 19.276 60.4856C20.3193 61.5294 21.5923 62.0514 23.0951 62.0514ZM56.9876 62.0514C58.4682 62.0514 59.7357 61.5297 60.7901 60.4864C61.8446 59.4436 62.3718 58.1706 62.3718 56.6672C62.3718 55.1644 61.8446 53.8911 60.7901 52.8472C59.7357 51.8033 58.4626 51.2814 56.971 51.2814C55.4798 51.2814 54.2123 51.8031 53.1685 52.8464C52.1246 53.8892 51.6026 55.1622 51.6026 56.6656C51.6026 58.1683 52.1243 59.4417 53.1676 60.4856C54.211 61.5294 55.4843 62.0514 56.9876 62.0514Z" fill="#1F1F1F"/>
</svg>
