<svg width="60" height="60" viewBox="0 0 60 60" fill="none" xmlns="http://www.w3.org/2000/svg">
<path d="M13.75 50.6248V12.1154C13.75 11.1475 14.1058 10.3046 14.8175 9.58664C15.5292 8.86873 16.3752 8.50977 17.3556 8.50977H42.6444C43.6248 8.50977 44.4708 8.86873 45.1825 9.58664C45.8942 10.3046 46.25 11.1475 46.25 12.1154V50.6248L30 43.6535L13.75 50.6248ZM16.5869 46.2835L30 40.591L43.4131 46.2835V12.1154C43.4131 11.9229 43.3331 11.7466 43.1731 11.5866C43.0127 11.4262 42.8365 11.346 42.6444 11.346H17.3556C17.1635 11.346 16.9873 11.4262 16.8269 11.5866C16.6669 11.7466 16.5869 11.9229 16.5869 12.1154V46.2835Z" fill="#1F1F1F"/>
</svg>
