<svg width="80" height="80" viewBox="0 0 80 80" fill="none" xmlns="http://www.w3.org/2000/svg">
<path d="M37.673 30.2497H66.2622C64.7494 26.1813 62.3094 22.5672 58.9422 19.4072C55.5744 16.2466 51.7561 14.1044 47.4872 12.9805L37.673 30.2497ZM30.3397 37.1022L44.7755 12.3138C44.1299 12.2583 43.3424 12.2113 42.413 12.173C41.4836 12.1347 40.6791 12.1155 39.9997 12.1155C36.0852 12.1155 32.4827 12.8269 29.1922 14.2497C25.9016 15.673 22.955 17.6411 20.3522 20.1538L30.3397 37.1022ZM12.9488 47.0897H32.6663L18.5955 22.128C16.4844 24.628 14.8766 27.3983 13.7722 30.4388C12.6677 33.4794 12.1155 36.6663 12.1155 39.9997C12.1155 41.1663 12.1763 42.3619 12.298 43.5863C12.4197 44.8108 12.6366 45.9786 12.9488 47.0897ZM32.6597 66.9355L42.628 49.7497H13.788C15.3008 53.818 17.743 57.4322 21.1147 60.5922C24.4869 63.7527 28.3352 65.8672 32.6597 66.9355ZM39.9997 67.8838C43.9141 67.8838 47.5252 67.1724 50.833 65.7497C54.1408 64.3263 57.0788 62.3583 59.6472 59.8455L49.7113 42.8972L35.288 67.6213C35.9674 67.6986 36.7475 67.7616 37.628 67.8105C38.508 67.8594 39.2986 67.8838 39.9997 67.8838ZM61.4872 57.8713C63.3333 55.5597 64.8611 52.8205 66.0705 49.6538C67.2794 46.4872 67.8838 43.2691 67.8838 39.9997C67.8838 38.7986 67.823 37.5944 67.7013 36.3872C67.5797 35.18 67.3799 34.0038 67.1022 32.8588H47.4163L61.4872 57.8713ZM39.9997 71.6663C35.658 71.6663 31.5608 70.8341 27.708 69.1697C23.8552 67.5052 20.4952 65.2391 17.628 62.3713C14.7602 59.5041 12.4941 56.1441 10.8297 52.2913C9.16523 48.4386 8.33301 44.3413 8.33301 39.9997C8.33301 35.6236 9.16523 31.5177 10.8297 27.6822C12.4941 23.8466 14.7602 20.4952 17.628 17.628C20.4952 14.7602 23.8552 12.4941 27.708 10.8297C31.5608 9.16523 35.658 8.33301 39.9997 8.33301C44.3758 8.33301 48.4816 9.16523 52.3172 10.8297C56.1527 12.4941 59.5041 14.7602 62.3713 17.628C65.2391 20.4952 67.5052 23.8466 69.1697 27.6822C70.8341 31.5177 71.6663 35.6236 71.6663 39.9997C71.6663 44.3413 70.8341 48.4386 69.1697 52.2913C67.5052 56.1441 65.2391 59.5041 62.3713 62.3713C59.5041 65.2391 56.1527 67.5052 52.3172 69.1697C48.4816 70.8341 44.3758 71.6663 39.9997 71.6663Z" fill="#1F1F1F"/>
</svg>
