<svg width="60" height="60" viewBox="0 0 60 60" fill="none" xmlns="http://www.w3.org/2000/svg">
<path d="M27.2644 56.5382V51.25H12.3556C11.3752 51.25 10.5292 50.8942 9.8175 50.1825C9.10583 49.4709 8.75 48.6248 8.75 47.6444V12.3557C8.75 11.3752 9.10583 10.5292 9.8175 9.81754C10.5292 9.10587 11.3752 8.75004 12.3556 8.75004H27.2644V3.46191H30.1012V56.5382H27.2644ZM11.5869 45.8125H27.2644V27.6344L11.5869 45.8125ZM34.1875 51.25V29.3032L48.4131 45.8125V12.3557C48.4131 12.1636 48.3331 11.9873 48.1731 11.8269C48.0127 11.6669 47.8365 11.5869 47.6444 11.5869H34.1875V8.75004H47.6444C48.6248 8.75004 49.4708 9.10587 50.1825 9.81754C50.8942 10.5292 51.25 11.3752 51.25 12.3557V47.6444C51.25 48.6248 50.8942 49.4709 50.1825 50.1825C49.4708 50.8942 48.6248 51.25 47.6444 51.25H34.1875Z" fill="#1F1F1F"/>
</svg>
