<svg width="80" height="80" viewBox="0 0 80 80" fill="none" xmlns="http://www.w3.org/2000/svg">
<path d="M40.5771 71.6025C36.8504 71.1808 33.141 70.1353 29.4488 68.4658C25.7566 66.7964 22.4235 64.4531 19.4496 61.4358C16.4752 58.4186 14.0338 54.6664 12.1254 50.1792C10.2177 45.6925 9.18878 40.425 9.03878 34.3767L8.97461 31.4808L11.7888 31.545C14.4554 31.6089 17.461 32.2317 20.8054 33.4133C24.1493 34.595 27.0029 36.0747 29.3663 37.8525C29.6824 33.2158 30.8232 28.3817 32.7888 23.35C34.7543 18.3183 37.1582 14.035 40.0004 10.5C42.8427 14.035 45.2466 18.3289 47.2121 23.3817C49.1777 28.435 50.3185 33.28 50.6346 37.9167C52.9341 36.2928 55.7343 34.8408 59.0354 33.5608C62.3366 32.2808 65.3741 31.6089 68.1479 31.545L71.0263 31.4808L70.9621 34.4408C70.8766 39.8903 70.0185 44.7464 68.3879 49.0092C66.7579 53.2719 64.5785 56.9386 61.8496 60.0092C59.1213 63.0797 55.9313 65.5778 52.2796 67.5033C48.6279 69.4283 44.7271 70.7947 40.5771 71.6025ZM41.0838 67.7692C40.4727 57.7353 37.5568 50.1325 32.3363 44.9608C27.1163 39.7892 20.6282 36.595 12.8721 35.3783C13.5516 45.7583 16.5918 53.5097 21.9929 58.6325C27.3941 63.7553 33.7577 66.8008 41.0838 67.7692ZM39.9488 49.34C40.6843 47.8528 41.7113 46.2758 43.0296 44.6092C44.3479 42.9425 45.646 41.5536 46.9238 40.4425C47.1371 36.7075 46.5816 32.8847 45.2571 28.9742C43.9321 25.0642 42.1799 21.1114 40.0004 17.1158C37.821 21.1114 36.0688 25.0642 34.7438 28.9742C33.4193 32.8847 32.8638 36.7075 33.0771 40.4425C34.3549 41.5536 35.6199 42.9478 36.8721 44.625C38.1243 46.3022 39.1499 47.8739 39.9488 49.34ZM44.8654 66.545C47.6049 65.5578 50.261 64.2811 52.8338 62.715C55.4066 61.1483 57.7024 59.1419 59.7213 56.6958C61.7407 54.2492 63.4213 51.2758 64.7629 47.7758C66.1052 44.2758 66.8938 40.1433 67.1288 35.3783C61.3254 36.2589 56.1843 38.3347 51.7054 41.6058C47.2271 44.8769 44.0071 48.865 42.0454 53.57C42.7121 55.6044 43.2793 57.6111 43.7471 59.59C44.2149 61.5683 44.5877 63.8867 44.8654 66.545Z" fill="#1F1F1F"/>
</svg>
