<svg width="80" height="80" viewBox="0 0 80 80" fill="none" xmlns="http://www.w3.org/2000/svg">
<path d="M18.7962 43.0386C17.9573 43.0386 17.2431 42.74 16.6537 42.1427C16.0643 41.5461 15.7695 40.8286 15.7695 39.9902C15.7695 39.1519 16.0681 38.4375 16.6654 37.8469C17.262 37.2569 17.9795 36.9619 18.8179 36.9619C19.6562 36.9619 20.3759 37.2605 20.977 37.8577C21.5781 38.4544 21.8787 39.1719 21.8787 40.0102C21.8787 40.8486 21.5768 41.563 20.9729 42.1536C20.3695 42.7436 19.644 43.0386 18.7962 43.0386ZM39.9904 43.0386C39.152 43.0386 38.4376 42.74 37.847 42.1427C37.257 41.5461 36.962 40.8286 36.962 39.9902C36.962 39.1519 37.2606 38.4375 37.8579 37.8469C38.4545 37.2569 39.172 36.9619 40.0104 36.9619C40.8487 36.9619 41.5631 37.2605 42.1537 37.8577C42.7437 38.4544 43.0387 39.1719 43.0387 40.0102C43.0387 40.8486 42.7401 41.563 42.1429 42.1536C41.5462 42.7436 40.8287 43.0386 39.9904 43.0386ZM61.1829 43.0386C60.3445 43.0386 59.6248 42.74 59.0237 42.1427C58.4226 41.5461 58.122 40.8286 58.122 39.9902C58.122 39.1519 58.424 38.4375 59.0279 37.8469C59.6312 37.2569 60.3568 36.9619 61.2045 36.9619C62.0434 36.9619 62.7576 37.2605 63.347 37.8577C63.9365 38.4544 64.2312 39.1719 64.2312 40.0102C64.2312 40.8486 63.9326 41.563 63.3354 42.1536C62.7387 42.7436 62.0212 43.0386 61.1829 43.0386Z" fill="#1F1F1F"/>
</svg>
