<svg width="80" height="80" viewBox="0 0 80 80" fill="none" xmlns="http://www.w3.org/2000/svg">
<path d="M39.9812 73.0767L25.6995 44.205C22.2506 45.2133 19.0498 44.6578 16.097 42.5383C13.1437 40.4189 11.667 37.4467 11.667 33.6217C11.667 31.3994 12.3723 29.2061 13.7828 27.0417C15.1928 24.8772 17.3914 23.3997 20.3787 22.6092C21.1392 17.1731 23.4267 12.8792 27.2412 9.7275C31.055 6.57583 35.3081 5 40.0003 5C44.6925 5 48.9373 6.57583 52.7345 9.7275C56.5312 12.8792 58.827 17.1731 59.622 22.6092C62.6092 23.3997 64.8078 24.8772 66.2178 27.0417C67.6284 29.2061 68.3337 31.3994 68.3337 33.6217C68.3337 37.4895 66.8498 40.4564 63.882 42.5225C60.9137 44.5886 57.797 45.1494 54.532 44.205L39.9812 73.0767ZM22.4878 40.8975C23.445 40.8975 24.3573 40.7639 25.2245 40.4967C26.0923 40.2294 26.7975 39.8139 27.3403 39.25L29.4103 37.1283L31.3912 38.6983C32.7162 39.6 34.1606 40.1919 35.7245 40.4742C37.2889 40.7564 38.7762 40.8975 40.1862 40.8975C41.575 40.8975 42.9812 40.7564 44.4045 40.4742C45.8273 40.1919 47.2117 39.6 48.5578 38.6983L50.5903 37.1283L52.6095 39.25C53.1523 39.8139 53.8659 40.2294 54.7503 40.4967C55.6348 40.7639 56.5387 40.8975 57.462 40.8975C59.3292 40.8975 60.9775 40.1656 62.407 38.7017C63.8364 37.2383 64.5512 35.545 64.5512 33.6217C64.5512 31.9211 64.0234 30.4372 62.9678 29.17C61.9123 27.9028 60.4551 27.1133 58.5962 26.8017L55.7762 26.385L55.6095 23.295C55.105 19.0556 53.4339 15.5769 50.5962 12.8592C47.7589 10.1414 44.227 8.7825 40.0003 8.7825C35.7737 8.7825 32.2331 10.1414 29.3787 12.8592C26.5237 15.5769 24.8612 19.0556 24.3912 23.295L24.1737 26.385L21.3528 27.0192C19.6862 27.4208 18.2856 28.1964 17.1512 29.3458C16.0167 30.4958 15.4495 31.9211 15.4495 33.6217C15.4495 35.545 16.1642 37.2383 17.5937 38.7017C19.0231 40.1656 20.6545 40.8975 22.4878 40.8975ZM39.9812 64.4675L51.0328 42.7625L50.212 42.0067C48.5281 42.9039 46.7781 43.5736 44.962 44.0158C43.1459 44.4581 41.5539 44.6792 40.1862 44.6792C38.5795 44.6792 36.8595 44.4742 35.0262 44.0642C33.1928 43.6536 31.4962 42.9678 29.9362 42.0067L29.1478 42.6792L39.9812 64.4675Z" fill="#1F1F1F"/>
</svg>
