<svg width="80" height="80" viewBox="0 0 80 80" fill="none" xmlns="http://www.w3.org/2000/svg">
<path d="M16.4745 68.3332C15.1673 68.3332 14.0392 67.8587 13.0903 66.9098C12.1414 65.9609 11.667 64.8329 11.667 63.5257V16.474C11.667 15.1668 12.1414 14.0387 13.0903 13.0898C14.0392 12.1409 15.1673 11.6665 16.4745 11.6665H63.5262C64.8334 11.6665 65.9614 12.1409 66.9103 13.0898C67.8592 14.0387 68.3337 15.1668 68.3337 16.474V63.5257C68.3337 64.8329 67.8592 65.9609 66.9103 66.9098C65.9614 67.8587 64.8334 68.3332 63.5262 68.3332H16.4745ZM16.4745 64.5507H63.5262C63.7823 64.5507 64.0173 64.444 64.2312 64.2307C64.4445 64.0168 64.5512 63.7818 64.5512 63.5257V16.474C64.5512 16.2179 64.4445 15.9829 64.2312 15.769C64.0173 15.5557 63.7823 15.449 63.5262 15.449H16.4745C16.2184 15.449 15.9834 15.5557 15.7695 15.769C15.5562 15.9829 15.4495 16.2179 15.4495 16.474V63.5257C15.4495 63.7818 15.5562 64.0168 15.7695 64.2307C15.9834 64.444 16.2184 64.5507 16.4745 64.5507ZM22.2637 56.019H58.077L47.2695 41.6407L37.1987 54.4807L30.3462 45.5323L22.2637 56.019Z" fill="#1F1F1F"/>
</svg>
