<svg width="80" height="80" viewBox="0 0 80 80" fill="none" xmlns="http://www.w3.org/2000/svg">
<path d="M28.7503 68.3337C23.9981 68.3337 19.9628 66.6745 16.6445 63.3562C13.3262 60.0378 11.667 56.0025 11.667 51.2503C11.667 48.9642 12.102 46.7784 12.972 44.6928C13.8414 42.6073 15.0795 40.7612 16.6862 39.1545L39.1545 16.6862C40.7612 15.0795 42.6073 13.8414 44.6928 12.972C46.7784 12.102 48.9642 11.667 51.2503 11.667C56.0025 11.667 60.0378 13.3262 63.3562 16.6445C66.6745 19.9628 68.3337 23.9981 68.3337 28.7503C68.3337 31.0364 67.8987 33.2223 67.0287 35.3078C66.1592 37.3934 64.9212 39.2395 63.3145 40.8462L40.8462 63.3145C39.2395 64.9212 37.3934 66.1592 35.3078 67.0287C33.2223 67.8987 31.0364 68.3337 28.7503 68.3337ZM50.7628 48.0128L60.6795 38.1795C61.9167 36.9439 62.8714 35.5073 63.5437 33.8695C64.2153 32.2317 64.5512 30.5264 64.5512 28.7537C64.5512 25.0464 63.2623 21.9023 60.6845 19.3212C58.1067 16.74 54.9637 15.4495 51.2553 15.4495C49.4825 15.4495 47.7764 15.7853 46.137 16.457C44.497 17.1292 43.0584 18.0839 41.8212 19.3212L31.9878 29.2378L50.7628 48.0128ZM28.7503 64.5512C30.4853 64.5512 32.1828 64.2153 33.8428 63.5437C35.5028 62.8714 36.9484 61.9167 38.1795 60.6795L48.0128 50.7628L29.2378 31.9878L19.3212 41.8212C18.0839 43.0567 17.1292 44.4934 16.457 46.1312C15.7853 47.7689 15.4495 49.4742 15.4495 51.247C15.4495 54.9542 16.7389 58.0984 19.3178 60.6795C21.8967 63.2606 25.0409 64.5512 28.7503 64.5512Z" fill="#1F1F1F"/>
</svg>
