<svg width="80" height="80" viewBox="0 0 80 80" fill="none" xmlns="http://www.w3.org/2000/svg">
<path d="M30.923 71.6663C28.3074 71.6663 26.1333 70.8011 24.4005 69.0705C22.6677 67.3399 21.8013 65.1597 21.8013 62.5297C21.8013 61.8174 21.7894 61.0436 21.7655 60.208C21.7422 59.3724 21.6108 58.8458 21.3713 58.628C21.1536 58.3886 20.6269 58.2463 19.7913 58.2013C18.9558 58.1563 18.1819 58.1338 17.4697 58.1338C14.8397 58.1338 12.6594 57.2783 10.9288 55.5672C9.19829 53.8555 8.33301 51.6866 8.33301 49.0605C8.33301 46.4344 9.19829 44.2549 10.9288 42.5222C12.6594 40.7894 14.8455 39.923 17.4872 39.923C19.0811 39.923 20.4741 40.2038 21.6663 40.7655C22.8586 41.3277 23.7516 41.8888 24.3455 42.4488C24.6661 42.6838 25.0241 42.8013 25.4197 42.8013C25.8147 42.8013 26.1405 42.6624 26.3972 42.3847L42.2563 26.5255C42.5341 26.2688 42.6944 25.9216 42.7372 25.4838C42.7799 25.0455 42.6838 24.6661 42.4488 24.3455C41.9444 23.7305 41.3972 22.8322 40.8072 21.6505C40.2177 20.4688 39.923 19.0811 39.923 17.4872C39.923 14.8455 40.7883 12.6594 42.5188 10.9288C44.2494 9.19829 46.4352 8.33301 49.0763 8.33301C51.6919 8.33301 53.8661 9.19829 55.5988 10.9288C57.3316 12.6594 58.198 14.8397 58.198 17.4697C58.198 18.1819 58.2099 18.9558 58.2338 19.7913C58.2572 20.6269 58.3886 21.1536 58.628 21.3713C58.8458 21.6108 59.3724 21.7422 60.208 21.7655C61.0436 21.7894 61.8174 21.8013 62.5297 21.8013C65.1597 21.8013 67.3399 22.6677 69.0705 24.4005C70.8011 26.1333 71.6663 28.3127 71.6663 30.9388C71.6663 33.565 70.8011 35.7444 69.0705 37.4772C67.3399 39.21 65.1538 40.0763 62.5122 40.0763C60.9183 40.0763 59.5305 39.7816 58.3488 39.1922C57.1672 38.6022 56.2688 38.0549 55.6538 37.5505C55.3333 37.3372 54.9647 37.2466 54.548 37.2788C54.1313 37.3105 53.7947 37.4652 53.538 37.743L37.743 53.538C37.4652 53.7947 37.305 54.1152 37.2622 54.4997C37.2194 54.8841 37.2944 55.2474 37.4872 55.5897C38.0038 56.2047 38.5647 57.1138 39.1697 58.3172C39.7741 59.5199 40.0763 60.9183 40.0763 62.5122C40.0763 65.1538 39.2111 67.3399 37.4805 69.0705C35.7499 70.8011 33.5641 71.6663 30.923 71.6663ZM30.9388 67.833C32.4744 67.833 33.7508 67.3383 34.768 66.3488C35.7858 65.3594 36.2947 64.0805 36.2947 62.5122C36.2947 61.4483 36.0702 60.5083 35.6213 59.6922C35.173 58.8761 34.7586 58.2286 34.378 57.7497C33.5447 56.6858 33.1922 55.5255 33.3205 54.2688C33.4483 53.0127 34.0166 51.8802 35.0255 50.8713L50.8205 35.0763C51.7838 34.0619 52.9169 33.4974 54.2197 33.383C55.5219 33.2686 56.6986 33.6002 57.7497 34.378C58.2286 34.7586 58.8761 35.173 59.6922 35.6213C60.5083 36.0702 61.4483 36.2947 62.5122 36.2947C64.0644 36.2947 65.3477 35.7872 66.3622 34.7722C67.3766 33.7577 67.8838 32.4747 67.8838 30.923C67.8838 29.398 67.3766 28.1269 66.3622 27.1097C65.3477 26.0919 64.0644 25.583 62.5122 25.583C61.1105 25.583 59.8211 25.5008 58.6438 25.3363C57.4666 25.1719 56.5552 24.7563 55.9097 24.0897C55.243 23.4441 54.8275 22.5327 54.663 21.3555C54.4986 20.1783 54.4163 18.8888 54.4163 17.4872C54.4163 15.9349 53.9074 14.6516 52.8897 13.6372C51.8724 12.6227 50.5961 12.1155 49.0605 12.1155C47.5249 12.1155 46.2486 12.6227 45.2313 13.6372C44.2136 14.6516 43.7047 15.9349 43.7047 17.4872C43.7047 18.5233 43.9291 19.4563 44.378 20.2863C44.8263 21.1163 45.2408 21.7708 45.6213 22.2497C46.4547 23.3136 46.8072 24.4738 46.6788 25.7305C46.5511 26.9866 45.9827 28.1191 44.9738 29.128L29.2113 44.923C28.2252 45.9397 27.0813 46.5047 25.7797 46.618C24.4775 46.7313 23.3008 46.3991 22.2497 45.6213C21.7708 45.2408 21.1233 44.8263 20.3072 44.378C19.4911 43.9291 18.5511 43.7047 17.4872 43.7047C15.9188 43.7047 14.64 44.2122 13.6505 45.2272C12.6611 46.2416 12.1663 47.5247 12.1663 49.0763C12.1663 50.6013 12.6611 51.8619 13.6505 52.858C14.64 53.8541 15.9188 54.3522 17.4872 54.3522C18.8888 54.3522 20.1783 54.4452 21.3555 54.6313C22.5327 54.8169 23.4441 55.243 24.0897 55.9097C24.7563 56.5552 25.1719 57.4774 25.3363 58.6763C25.5008 59.8747 25.583 61.1747 25.583 62.5763C25.583 64.1447 26.0919 65.413 27.1097 66.3813C28.1269 67.3491 29.4033 67.833 30.9388 67.833Z" fill="#1F1F1F"/>
</svg>
