<svg width="80" height="80" viewBox="0 0 80 80" fill="none" xmlns="http://www.w3.org/2000/svg">
<path d="M14.3337 68.2818L11.667 65.6152L38.6412 38.6735L23.802 35.0002L38.6795 25.7377L37.4103 8.3335L50.7695 19.5518L66.9362 13.0327L60.3978 29.1985L71.667 42.5577L54.1795 41.2693L45.0003 56.1152L41.327 41.3077L14.3337 68.2818ZM16.3528 23.141L11.667 18.4552L16.4045 13.7185L21.122 18.4043L16.3528 23.141ZM46.4878 46.5577L52.1862 37.3852L62.9553 38.1668L55.9428 29.891L59.9812 19.936L50.0262 23.9743L41.7503 16.9618L42.532 27.731L33.3912 33.481L43.8787 36.0902L46.4878 46.5577ZM61.5962 68.3335L56.9103 63.596L61.5962 58.8785L66.282 63.6477L61.5962 68.3335Z" fill="#1F1F1F"/>
</svg>
